<svg width="100" height="100" viewBox="0 0 100 100" fill="none" xmlns="http://www.w3.org/2000/svg">
  <circle cx="50" cy="50" r="5" fill="#61DAFB"/>
  <path d="M50 10 C 30 10, 10 30, 10 50 C 10 70, 30 90, 50 90 C 70 90, 90 70, 90 50 C 90 30, 70 10, 50 10 Z" stroke="#61DAFB" stroke-width="2" fill="none"/>
  <path d="M50 10 C 70 10, 90 30, 90 50 C 90 70, 70 90, 50 90 C 30 90, 10 70, 10 50 C 10 30, 30 10, 50 10 Z" stroke="#61DAFB" stroke-width="2" fill="none"/>
  <path d="M10 50 C 10 30, 30 10, 50 10 C 70 10, 90 30, 90 50 C 90 70, 70 90, 50 90 C 30 90, 10 70, 10 50 Z" stroke="#61DAFB" stroke-width="2" fill="none"/>
</svg>
